<svg width="512" height="512" viewBox="0 0 512 512" fill="none" xmlns="http://www.w3.org/2000/svg">
  <defs>
    <linearGradient id="bg" x1="80" y1="72" x2="430" y2="440" gradientUnits="userSpaceOnUse">
      <stop stop-color="#09111F"/>
      <stop offset="1" stop-color="#111C33"/>
    </linearGradient>
    <linearGradient id="ring" x1="124" y1="112" x2="390" y2="406" gradientUnits="userSpaceOnUse">
      <stop stop-color="#14D8FF"/>
      <stop offset="1" stop-color="#2F7BFF"/>
    </linearGradient>
    <linearGradient id="shield" x1="160" y1="146" x2="341" y2="366" gradientUnits="userSpaceOnUse">
      <stop stop-color="#F4FBFF"/>
      <stop offset="1" stop-color="#A9D8FF"/>
    </linearGradient>
    <linearGradient id="accent" x1="188" y1="164" x2="320" y2="320" gradientUnits="userSpaceOnUse">
      <stop stop-color="#14D8FF"/>
      <stop offset="1" stop-color="#2368FF"/>
    </linearGradient>
    <filter id="glow" x="86" y="74" width="340" height="364" filterUnits="userSpaceOnUse" color-interpolation-filters="sRGB">
      <feFlood flood-opacity="0" result="BackgroundImageFix"/>
      <feBlend mode="normal" in="SourceGraphic" in2="BackgroundImageFix" result="shape"/>
      <feGaussianBlur stdDeviation="12" result="effect1_foregroundBlur"/>
    </filter>
  </defs>

  <rect x="24" y="24" width="464" height="464" rx="112" fill="url(#bg)"/>
  <rect x="24" y="24" width="464" height="464" rx="112" stroke="#1C2A46" stroke-width="2"/>

  <g filter="url(#glow)">
    <path d="M256 98C314 130 359 143 394 148C395 189 390 309 256 406C122 309 117 189 118 148C153 143 198 130 256 98Z" fill="url(#ring)" fill-opacity="0.18"/>
  </g>

  <path d="M256 98C314 130 359 143 394 148C395 189 390 309 256 406C122 309 117 189 118 148C153 143 198 130 256 98Z" stroke="url(#ring)" stroke-width="18" stroke-linejoin="round"/>

  <path d="M256 132C300 156 335 166 362 171C362 205 359 286 256 361C153 286 150 205 150 171C177 166 212 156 256 132Z" fill="url(#shield)"/>

  <path d="M256 173L315 197V235C315 286 286 322 256 339C226 322 197 286 197 235V197L256 173Z" fill="url(#accent)"/>

  <path d="M256 205V307" stroke="#F3FBFF" stroke-width="20" stroke-linecap="round"/>
  <path d="M217 244H295" stroke="#F3FBFF" stroke-width="20" stroke-linecap="round"/>

  <circle cx="378" cy="146" r="14" fill="#14D8FF" fill-opacity="0.9"/>
  <circle cx="139" cy="367" r="10" fill="#2F7BFF" fill-opacity="0.9"/>
</svg>
